<mxfile host="app.diagrams.net" modified="2021-09-09T08:43:55.750Z" agent="5.0 (Windows NT 10.0; Win64; x64) AppleWebKit/537.36 (KHTML, like Gecko) Chrome/93.0.4577.63 Safari/537.36" etag="yHnsw-4hjXid9b1uPotj" version="15.1.2" type="github">
  <diagram id="C5RBs43oDa-KdzZeNtuy" name="Page-1">
    <mxGraphModel dx="1299" dy="584" grid="1" gridSize="10" guides="1" tooltips="1" connect="1" arrows="1" fold="1" page="1" pageScale="1" pageWidth="827" pageHeight="1169" math="0" shadow="0">
      <root>
        <mxCell id="WIyWlLk6GJQsqaUBKTNV-0" />
        <mxCell id="WIyWlLk6GJQsqaUBKTNV-1" parent="WIyWlLk6GJQsqaUBKTNV-0" />
        <mxCell id="Y3KrBz0cvRlqSg5LYXxa-0" value="" style="shape=actor;whiteSpace=wrap;html=1;" vertex="1" parent="WIyWlLk6GJQsqaUBKTNV-1">
          <mxGeometry x="50" y="230" width="40" height="60" as="geometry" />
        </mxCell>
        <mxCell id="Y3KrBz0cvRlqSg5LYXxa-2" value="DR Manager" style="rounded=0;whiteSpace=wrap;html=1;" vertex="1" parent="WIyWlLk6GJQsqaUBKTNV-1">
          <mxGeometry x="180" y="200" width="100" height="40" as="geometry" />
        </mxCell>
        <mxCell id="Y3KrBz0cvRlqSg5LYXxa-3" value="生产集群A" style="rounded=0;whiteSpace=wrap;html=1;" vertex="1" parent="WIyWlLk6GJQsqaUBKTNV-1">
          <mxGeometry x="370" y="200" width="100" height="40" as="geometry" />
        </mxCell>
        <mxCell id="Y3KrBz0cvRlqSg5LYXxa-4" value="容灾集群B" style="rounded=0;whiteSpace=wrap;html=1;" vertex="1" parent="WIyWlLk6GJQsqaUBKTNV-1">
          <mxGeometry x="550" y="200" width="100" height="40" as="geometry" />
        </mxCell>
        <mxCell id="Y3KrBz0cvRlqSg5LYXxa-5" value="" style="endArrow=none;dashed=1;html=1;entryX=0.5;entryY=1;entryDx=0;entryDy=0;" edge="1" parent="WIyWlLk6GJQsqaUBKTNV-1" target="Y3KrBz0cvRlqSg5LYXxa-2">
          <mxGeometry width="50" height="50" relative="1" as="geometry">
            <mxPoint x="230" y="280" as="sourcePoint" />
            <mxPoint x="360" y="260" as="targetPoint" />
          </mxGeometry>
        </mxCell>
        <mxCell id="Y3KrBz0cvRlqSg5LYXxa-7" value="" style="endArrow=classic;html=1;exitX=1.075;exitY=0.867;exitDx=0;exitDy=0;exitPerimeter=0;" edge="1" parent="WIyWlLk6GJQsqaUBKTNV-1" source="Y3KrBz0cvRlqSg5LYXxa-0">
          <mxGeometry width="50" height="50" relative="1" as="geometry">
            <mxPoint x="130" y="300" as="sourcePoint" />
            <mxPoint x="230" y="282" as="targetPoint" />
          </mxGeometry>
        </mxCell>
        <mxCell id="Y3KrBz0cvRlqSg5LYXxa-8" value="&lt;font style=&quot;font-size: 14px&quot;&gt;1.计划性迁移&lt;/font&gt;" style="text;html=1;resizable=0;autosize=1;align=center;verticalAlign=middle;points=[];fillColor=none;strokeColor=none;rounded=0;" vertex="1" parent="WIyWlLk6GJQsqaUBKTNV-1">
          <mxGeometry x="110" y="250" width="100" height="20" as="geometry" />
        </mxCell>
        <mxCell id="Y3KrBz0cvRlqSg5LYXxa-10" value="" style="endArrow=none;dashed=1;html=1;" edge="1" parent="WIyWlLk6GJQsqaUBKTNV-1">
          <mxGeometry width="50" height="50" relative="1" as="geometry">
            <mxPoint x="230" y="720" as="sourcePoint" />
            <mxPoint x="229.5" y="280" as="targetPoint" />
          </mxGeometry>
        </mxCell>
        <mxCell id="Y3KrBz0cvRlqSg5LYXxa-11" value="" style="endArrow=classic;html=1;" edge="1" parent="WIyWlLk6GJQsqaUBKTNV-1">
          <mxGeometry width="50" height="50" relative="1" as="geometry">
            <mxPoint x="230" y="310" as="sourcePoint" />
            <mxPoint x="420" y="310" as="targetPoint" />
          </mxGeometry>
        </mxCell>
        <mxCell id="Y3KrBz0cvRlqSg5LYXxa-12" value="" style="endArrow=none;dashed=1;html=1;entryX=0.5;entryY=1;entryDx=0;entryDy=0;" edge="1" parent="WIyWlLk6GJQsqaUBKTNV-1" target="Y3KrBz0cvRlqSg5LYXxa-3">
          <mxGeometry width="50" height="50" relative="1" as="geometry">
            <mxPoint x="420" y="720" as="sourcePoint" />
            <mxPoint x="420" y="250" as="targetPoint" />
          </mxGeometry>
        </mxCell>
        <mxCell id="Y3KrBz0cvRlqSg5LYXxa-13" value="&lt;font style=&quot;font-size: 14px&quot;&gt;1.计划性迁移&lt;/font&gt;" style="text;html=1;resizable=0;autosize=1;align=center;verticalAlign=middle;points=[];fillColor=none;strokeColor=none;rounded=0;" vertex="1" parent="WIyWlLk6GJQsqaUBKTNV-1">
          <mxGeometry x="110" y="250" width="100" height="20" as="geometry" />
        </mxCell>
        <mxCell id="Y3KrBz0cvRlqSg5LYXxa-14" value="&lt;font style=&quot;font-size: 14px&quot;&gt;2.检查生产集群状态&lt;/font&gt;" style="text;html=1;resizable=0;autosize=1;align=center;verticalAlign=middle;points=[];fillColor=none;strokeColor=none;rounded=0;" vertex="1" parent="WIyWlLk6GJQsqaUBKTNV-1">
          <mxGeometry x="250" y="280" width="140" height="20" as="geometry" />
        </mxCell>
        <mxCell id="Y3KrBz0cvRlqSg5LYXxa-15" value="" style="endArrow=classic;html=1;" edge="1" parent="WIyWlLk6GJQsqaUBKTNV-1">
          <mxGeometry width="50" height="50" relative="1" as="geometry">
            <mxPoint x="230" y="340" as="sourcePoint" />
            <mxPoint x="600" y="340" as="targetPoint" />
          </mxGeometry>
        </mxCell>
        <mxCell id="Y3KrBz0cvRlqSg5LYXxa-16" value="" style="endArrow=none;dashed=1;html=1;entryX=0.5;entryY=1;entryDx=0;entryDy=0;" edge="1" parent="WIyWlLk6GJQsqaUBKTNV-1" target="Y3KrBz0cvRlqSg5LYXxa-4">
          <mxGeometry width="50" height="50" relative="1" as="geometry">
            <mxPoint x="600" y="720" as="sourcePoint" />
            <mxPoint x="440" y="280" as="targetPoint" />
          </mxGeometry>
        </mxCell>
        <mxCell id="Y3KrBz0cvRlqSg5LYXxa-18" value="&lt;font style=&quot;font-size: 14px&quot;&gt;3.检查容灾集群状态&lt;/font&gt;" style="text;html=1;resizable=0;autosize=1;align=center;verticalAlign=middle;points=[];fillColor=none;strokeColor=none;rounded=0;" vertex="1" parent="WIyWlLk6GJQsqaUBKTNV-1">
          <mxGeometry x="250" y="320" width="140" height="20" as="geometry" />
        </mxCell>
        <mxCell id="Y3KrBz0cvRlqSg5LYXxa-21" value="" style="endArrow=classic;html=1;" edge="1" parent="WIyWlLk6GJQsqaUBKTNV-1">
          <mxGeometry width="50" height="50" relative="1" as="geometry">
            <mxPoint x="230" y="390" as="sourcePoint" />
            <mxPoint x="420" y="390" as="targetPoint" />
          </mxGeometry>
        </mxCell>
        <mxCell id="Y3KrBz0cvRlqSg5LYXxa-22" value="&lt;font style=&quot;font-size: 14px&quot;&gt;4.停止生产集群A工作负载&lt;/font&gt;" style="text;html=1;resizable=0;autosize=1;align=center;verticalAlign=middle;points=[];fillColor=none;strokeColor=none;rounded=0;" vertex="1" parent="WIyWlLk6GJQsqaUBKTNV-1">
          <mxGeometry x="250" y="360" width="180" height="20" as="geometry" />
        </mxCell>
        <mxCell id="Y3KrBz0cvRlqSg5LYXxa-23" value="" style="endArrow=classic;html=1;" edge="1" parent="WIyWlLk6GJQsqaUBKTNV-1">
          <mxGeometry width="50" height="50" relative="1" as="geometry">
            <mxPoint x="230" y="430" as="sourcePoint" />
            <mxPoint x="600" y="430" as="targetPoint" />
          </mxGeometry>
        </mxCell>
        <mxCell id="Y3KrBz0cvRlqSg5LYXxa-24" value="&lt;font style=&quot;font-size: 14px&quot;&gt;5.生产集群A数据同步到容灾集群B&lt;/font&gt;" style="text;html=1;resizable=0;autosize=1;align=center;verticalAlign=middle;points=[];fillColor=none;strokeColor=none;rounded=0;" vertex="1" parent="WIyWlLk6GJQsqaUBKTNV-1">
          <mxGeometry x="250" y="400" width="230" height="20" as="geometry" />
        </mxCell>
        <mxCell id="Y3KrBz0cvRlqSg5LYXxa-27" value="" style="endArrow=classic;html=1;edgeStyle=orthogonalEdgeStyle;" edge="1" parent="WIyWlLk6GJQsqaUBKTNV-1">
          <mxGeometry width="50" height="50" relative="1" as="geometry">
            <mxPoint x="230" y="510" as="sourcePoint" />
            <mxPoint x="230" y="510" as="targetPoint" />
            <Array as="points">
              <mxPoint x="230" y="480" />
              <mxPoint x="390" y="480" />
              <mxPoint x="390" y="510" />
            </Array>
          </mxGeometry>
        </mxCell>
        <mxCell id="Y3KrBz0cvRlqSg5LYXxa-28" value="&lt;font style=&quot;font-size: 14px&quot;&gt;6.检查存储侧复制状态&lt;/font&gt;" style="text;html=1;resizable=0;autosize=1;align=center;verticalAlign=middle;points=[];fillColor=none;strokeColor=none;rounded=0;" vertex="1" parent="WIyWlLk6GJQsqaUBKTNV-1">
          <mxGeometry x="250" y="450" width="150" height="20" as="geometry" />
        </mxCell>
        <mxCell id="Y3KrBz0cvRlqSg5LYXxa-30" value="" style="endArrow=classic;html=1;edgeStyle=elbowEdgeStyle;" edge="1" parent="WIyWlLk6GJQsqaUBKTNV-1">
          <mxGeometry width="50" height="50" relative="1" as="geometry">
            <mxPoint x="230" y="565" as="sourcePoint" />
            <mxPoint x="230" y="600" as="targetPoint" />
            <Array as="points">
              <mxPoint x="380" y="585" />
            </Array>
          </mxGeometry>
        </mxCell>
        <mxCell id="Y3KrBz0cvRlqSg5LYXxa-31" value="&lt;font style=&quot;font-size: 14px&quot;&gt;7.反转存储复制，重保护&lt;/font&gt;" style="text;html=1;resizable=0;autosize=1;align=center;verticalAlign=middle;points=[];fillColor=none;strokeColor=none;rounded=0;" vertex="1" parent="WIyWlLk6GJQsqaUBKTNV-1">
          <mxGeometry x="255" y="530" width="170" height="20" as="geometry" />
        </mxCell>
        <mxCell id="Y3KrBz0cvRlqSg5LYXxa-32" value="" style="endArrow=classic;html=1;" edge="1" parent="WIyWlLk6GJQsqaUBKTNV-1">
          <mxGeometry width="50" height="50" relative="1" as="geometry">
            <mxPoint x="229" y="650" as="sourcePoint" />
            <mxPoint x="599" y="650" as="targetPoint" />
          </mxGeometry>
        </mxCell>
        <mxCell id="Y3KrBz0cvRlqSg5LYXxa-33" value="&lt;font style=&quot;font-size: 14px&quot;&gt;8.恢复容灾集群被保护容器&lt;/font&gt;" style="text;html=1;resizable=0;autosize=1;align=center;verticalAlign=middle;points=[];fillColor=none;strokeColor=none;rounded=0;" vertex="1" parent="WIyWlLk6GJQsqaUBKTNV-1">
          <mxGeometry x="260" y="620" width="180" height="20" as="geometry" />
        </mxCell>
      </root>
    </mxGraphModel>
  </diagram>
</mxfile>
